<svg width="170" height="46" viewBox="0 0 170 46" fill="none" xmlns="http://www.w3.org/2000/svg">
<g clip-path="url(#clip0_3_2)">
<path fill-rule="evenodd" clip-rule="evenodd" d="M2.17322 14.1486L24.3393 7.29447C26.6732 6.4955 29.6939 5.28855 31.0543 4C31.0543 4 40.1554 10.7997 28.2031 14.4886L8.9708 20.4417L2.17322 14.1486Z" fill="#2DDAFF"/>
<path fill-rule="evenodd" clip-rule="evenodd" d="M0 25.9461L22.166 19.092C24.5043 18.2964 27.525 17.0895 28.8854 15.8009C28.8854 15.8009 37.9865 22.6007 26.0342 26.2861L6.77585 32.2427L0 25.9461Z" fill="#1A85F8"/>
<path opacity="0.8" fill-rule="evenodd" clip-rule="evenodd" d="M0 25.9461L11.735 22.3151L26.1516 35.6969L20.2841 37.5159C17.0548 38.5154 12.8954 37.917 11.0222 36.1831L0 25.9461Z" fill="#2DDAFF"/>
</g>
<path d="M39.544 28.14C36.198 28.14 34.504 25.872 34.504 23.1C34.504 20.314 36.352 18.06 39.334 18.06C41.994 18.06 43.884 19.418 44.164 21.826H42.274C41.994 20.664 41.126 19.726 39.46 19.726C37.71 19.726 36.352 21.028 36.352 22.96C36.352 24.794 37.57 26.488 39.488 26.488C40.93 26.488 41.924 25.69 42.246 24.472H44.164C43.842 26.502 42.33 28.14 39.544 28.14ZM50.168 18.06C53.066 18.06 55.306 19.88 55.306 23.1C55.306 26.474 53.066 28.14 50.168 28.14C47.34 28.14 45.086 26.334 45.086 23.1H46.99C46.99 25.284 48.376 26.362 50.168 26.362C52.016 26.362 53.416 25.284 53.416 23.1C53.416 20.916 52.016 19.852 50.168 19.852V18.06ZM58.2143 23.1H56.3803C56.3803 20.02 58.3543 18.06 61.4763 18.06C64.1503 18.06 65.8443 19.096 66.3203 21.546H64.3183C63.9543 20.426 62.9883 19.726 61.4903 19.726C59.5303 19.726 58.2143 21.196 58.2143 23.1ZM61.3363 28H58.6203L63.9683 24.15H61.1403V22.778H66.3483C66.3483 22.848 66.3483 27.93 66.3483 28H64.5843V25.662L61.3363 28ZM74.6326 28L67.9266 18.2H69.8726L74.6046 24.948H74.6746V18.2H76.4806V28H74.6326ZM68.0106 28V20.58L69.8446 23.198V28H68.0106ZM80.2779 19.712H78.3739V18.2H80.2779V19.712ZM78.3739 28V21H80.2639V28H78.3739ZM81.3343 18.2H89.1183V20.034H81.3343V18.2ZM84.2883 21.28H86.1783V28H84.2883V21.28ZM92.0767 19.712H90.1727V18.2H92.0767V19.712ZM90.1727 28V21H92.0627V28H90.1727ZM96.6472 28L93.0632 18.2H95.0512L98.5792 28H96.6472ZM99.2092 26.544L98.3132 24.094L100.343 18.2H102.499L99.2092 26.544ZM110.629 20.034H103.377V18.2H110.629V20.034ZM110.629 23.968H103.377V22.232H110.629V23.968ZM103.377 28V26.152H110.629V28H103.377ZM117.009 28.14C113.663 28.14 111.969 25.872 111.969 23.1C111.969 20.314 113.817 18.06 116.799 18.06C119.459 18.06 121.349 19.418 121.629 21.826H119.739C119.459 20.664 118.591 19.726 116.925 19.726C115.175 19.726 113.817 21.028 113.817 22.96C113.817 24.794 115.035 26.488 116.953 26.488C118.395 26.488 119.389 25.69 119.711 24.472H121.629C121.307 26.502 119.795 28.14 117.009 28.14ZM122.999 28V22.974H126.849C127.983 22.974 128.711 22.372 128.711 21.336C128.711 20.37 128.095 19.852 126.835 19.852H122.999V18.2H127.045C129.257 18.2 130.489 19.32 130.489 21.294C130.489 22.344 129.957 23.632 128.767 24.22L131.049 28H128.921L127.087 24.542H124.889V28H122.999ZM137.117 18.2L140.967 28H138.783L135.997 20.23H135.857L133.253 28H131.209L134.723 18.2H137.117ZM141.989 20.034V18.2H157.319V20.034H141.989ZM152.489 21.28H154.379V28H152.489V21.28ZM141.989 28V22.33H148.723V24.024H143.907V28H141.989Z" fill="white"/>
<defs>
<clipPath id="clip0_3_2">
<rect width="32" height="34" fill="white" transform="translate(0 4)"/>
</clipPath>
</defs>
</svg>
