<svg width="170" height="61" viewBox="0 0 170 61" fill="none" xmlns="http://www.w3.org/2000/svg">
<g clip-path="url(#clip0_3_2)">
<path fill-rule="evenodd" clip-rule="evenodd" d="M71.1732 10.1486L93.3393 3.29447C95.6732 2.4955 98.6939 1.28855 100.054 0C100.054 0 109.155 6.79973 97.2031 10.4886L77.9708 16.4417L71.1732 10.1486Z" fill="#2DDAFF"/>
<path fill-rule="evenodd" clip-rule="evenodd" d="M69 21.9461L91.166 15.092C93.5043 14.2964 96.525 13.0895 97.8854 11.8009C97.8854 11.8009 106.987 18.6007 95.0342 22.2861L75.7759 28.2427L69 21.9461Z" fill="#1A85F8"/>
<path opacity="0.8" fill-rule="evenodd" clip-rule="evenodd" d="M69 21.9461L80.735 18.3151L95.1516 31.6969L89.2841 33.5159C86.0548 34.5154 81.8954 33.917 80.0222 32.1831L69 21.9461Z" fill="#2DDAFF"/>
</g>
<path d="M47.544 45.14C44.198 45.14 42.504 42.872 42.504 40.1C42.504 37.314 44.352 35.06 47.334 35.06C49.994 35.06 51.884 36.418 52.164 38.826H50.274C49.994 37.664 49.126 36.726 47.46 36.726C45.71 36.726 44.352 38.028 44.352 39.96C44.352 41.794 45.57 43.488 47.488 43.488C48.93 43.488 49.924 42.69 50.246 41.472H52.164C51.842 43.502 50.33 45.14 47.544 45.14ZM58.168 35.06C61.066 35.06 63.306 36.88 63.306 40.1C63.306 43.474 61.066 45.14 58.168 45.14C55.34 45.14 53.086 43.334 53.086 40.1H54.99C54.99 42.284 56.376 43.362 58.168 43.362C60.016 43.362 61.416 42.284 61.416 40.1C61.416 37.916 60.016 36.852 58.168 36.852V35.06ZM66.2143 40.1H64.3803C64.3803 37.02 66.3543 35.06 69.4763 35.06C72.1503 35.06 73.8443 36.096 74.3203 38.546H72.3183C71.9543 37.426 70.9883 36.726 69.4903 36.726C67.5303 36.726 66.2143 38.196 66.2143 40.1ZM69.3363 45H66.6203L71.9683 41.15H69.1403V39.778H74.3483C74.3483 39.848 74.3483 44.93 74.3483 45H72.5843V42.662L69.3363 45ZM77.4526 40.1H75.6186C75.6186 37.02 77.5926 35.06 80.7146 35.06C83.3886 35.06 85.0826 36.096 85.5586 38.546H83.5566C83.1926 37.426 82.2266 36.726 80.7286 36.726C78.7686 36.726 77.4526 38.196 77.4526 40.1ZM80.5746 45H77.8586L83.2066 41.15H80.3786V39.778H85.5866C85.5866 39.848 85.5866 44.93 85.5866 45H83.8226V42.662L80.5746 45ZM96.0381 45.14C92.6921 45.14 90.9981 42.872 90.9981 40.1C90.9981 37.314 92.8461 35.06 95.8281 35.06C98.4881 35.06 100.378 36.418 100.658 38.826H98.7681C98.4881 37.664 97.6201 36.726 95.9541 36.726C94.2041 36.726 92.8461 38.028 92.8461 39.96C92.8461 41.794 94.0641 43.488 95.9821 43.488C97.4241 43.488 98.4181 42.69 98.7401 41.472H100.658C100.336 43.502 98.8241 45.14 96.0381 45.14ZM102.028 45V39.974H105.878C107.012 39.974 107.74 39.372 107.74 38.336C107.74 37.37 107.124 36.852 105.864 36.852H102.028V35.2H106.074C108.286 35.2 109.518 36.32 109.518 38.294C109.518 39.344 108.986 40.632 107.796 41.22L110.078 45H107.95L106.116 41.542H103.918V45H102.028ZM116.146 35.2L119.996 45H117.812L115.026 37.23H114.886L112.282 45H110.238L113.752 35.2H116.146ZM121.018 37.034V35.2H136.348V37.034H121.018ZM131.518 38.28H133.408V45H131.518V38.28ZM121.018 45V39.33H127.752V41.024H122.936V45H121.018Z" fill="white"/>
<defs>
<clipPath id="clip0_3_2">
<rect width="32" height="34" fill="white" transform="translate(69)"/>
</clipPath>
</defs>
</svg>
