<svg width="170" height="61" viewBox="0 0 170 61" fill="none" xmlns="http://www.w3.org/2000/svg">
<g clip-path="url(#clip0_3_2)">
<path fill-rule="evenodd" clip-rule="evenodd" d="M71.1732 10.1486L93.3393 3.29447C95.6732 2.4955 98.6939 1.28855 100.054 0C100.054 0 109.155 6.79973 97.2031 10.4886L77.9708 16.4417L71.1732 10.1486Z" fill="#2DDAFF"/>
<path fill-rule="evenodd" clip-rule="evenodd" d="M69 21.9461L91.166 15.092C93.5043 14.2964 96.525 13.0895 97.8854 11.8009C97.8854 11.8009 106.987 18.6007 95.0342 22.2861L75.7759 28.2427L69 21.9461Z" fill="#1A85F8"/>
<path opacity="0.8" fill-rule="evenodd" clip-rule="evenodd" d="M69 21.9461L80.735 18.3151L95.1516 31.6969L89.2841 33.5159C86.0548 34.5154 81.8954 33.917 80.0222 32.1831L69 21.9461Z" fill="#2DDAFF"/>
</g>
<path d="M39.336 56.16C35.512 56.16 33.576 53.568 33.576 50.4C33.576 47.216 35.688 44.64 39.096 44.64C42.136 44.64 44.296 46.192 44.616 48.944H42.456C42.136 47.616 41.144 46.544 39.24 46.544C37.24 46.544 35.688 48.032 35.688 50.24C35.688 52.336 37.08 54.272 39.272 54.272C40.92 54.272 42.056 53.36 42.424 51.968H44.616C44.248 54.288 42.52 56.16 39.336 56.16ZM51.4778 44.64C54.7898 44.64 57.3498 46.72 57.3498 50.4C57.3498 54.256 54.7898 56.16 51.4778 56.16C48.2458 56.16 45.6698 54.096 45.6698 50.4H47.8458C47.8458 52.896 49.4298 54.128 51.4778 54.128C53.5898 54.128 55.1898 52.896 55.1898 50.4C55.1898 47.904 53.5898 46.688 51.4778 46.688V44.64ZM60.6735 50.4H58.5775C58.5775 46.88 60.8335 44.64 64.4015 44.64C67.4575 44.64 69.3935 45.824 69.9375 48.624H67.6495C67.2335 47.344 66.1295 46.544 64.4175 46.544C62.1775 46.544 60.6735 48.224 60.6735 50.4ZM64.2415 56H61.1375L67.2495 51.6H64.0175V50.032H69.9695C69.9695 50.112 69.9695 55.92 69.9695 56H67.9535V53.328L64.2415 56ZM73.5173 50.4H71.4213C71.4213 46.88 73.6773 44.64 77.2453 44.64C80.3013 44.64 82.2373 45.824 82.7813 48.624H80.4933C80.0773 47.344 78.9733 46.544 77.2613 46.544C75.0213 46.544 73.5173 48.224 73.5173 50.4ZM77.0853 56H73.9813L80.0933 51.6H76.8613V50.032H82.8133C82.8133 50.112 82.8133 55.92 82.8133 56H80.7973V53.328L77.0853 56ZM94.7579 56.16C90.9339 56.16 88.9979 53.568 88.9979 50.4C88.9979 47.216 91.1099 44.64 94.5179 44.64C97.5579 44.64 99.7179 46.192 100.038 48.944H97.8779C97.5579 47.616 96.5659 46.544 94.6619 46.544C92.6619 46.544 91.1099 48.032 91.1099 50.24C91.1099 52.336 92.5019 54.272 94.6939 54.272C96.3419 54.272 97.4779 53.36 97.8459 51.968H100.038C99.6699 54.288 97.9419 56.16 94.7579 56.16ZM101.604 56V50.256H106.004C107.3 50.256 108.132 49.568 108.132 48.384C108.132 47.28 107.428 46.688 105.988 46.688H101.604V44.8H106.228C108.756 44.8 110.164 46.08 110.164 48.336C110.164 49.536 109.556 51.008 108.196 51.68L110.804 56H108.372L106.276 52.048H103.764V56H101.604ZM117.739 44.8L122.139 56H119.643L116.459 47.12H116.299L113.323 56H110.987L115.003 44.8H117.739ZM123.307 46.896V44.8H140.827V46.896H123.307ZM135.307 48.32H137.467V56H135.307V48.32ZM123.307 56V49.52H131.003V51.456H125.499V56H123.307Z" fill="white"/>
<defs>
<clipPath id="clip0_3_2">
<rect width="32" height="34" fill="white" transform="translate(69)"/>
</clipPath>
</defs>
</svg>
