<svg width="170" height="61" viewBox="0 0 170 61" fill="none" xmlns="http://www.w3.org/2000/svg">
<g clip-path="url(#clip0_3_2)">
<path fill-rule="evenodd" clip-rule="evenodd" d="M71.1732 10.1486L93.3393 3.29447C95.6732 2.4955 98.6939 1.28855 100.054 0C100.054 0 109.155 6.79973 97.2031 10.4886L77.9708 16.4417L71.1732 10.1486Z" fill="#2DDAFF"/>
<path fill-rule="evenodd" clip-rule="evenodd" d="M69 21.9461L91.166 15.092C93.5043 14.2964 96.525 13.0895 97.8854 11.8009C97.8854 11.8009 106.987 18.6007 95.0342 22.2861L75.7759 28.2427L69 21.9461Z" fill="#1A85F8"/>
<path opacity="0.8" fill-rule="evenodd" clip-rule="evenodd" d="M69 21.9461L80.735 18.3151L95.1516 31.6969L89.2841 33.5159C86.0548 34.5154 81.8954 33.917 80.0222 32.1831L69 21.9461Z" fill="#2DDAFF"/>
</g>
<path d="M48.336 54.16C44.512 54.16 42.576 51.568 42.576 48.4C42.576 45.216 44.688 42.64 48.096 42.64C51.136 42.64 53.296 44.192 53.616 46.944H51.456C51.136 45.616 50.144 44.544 48.24 44.544C46.24 44.544 44.688 46.032 44.688 48.24C44.688 50.336 46.08 52.272 48.272 52.272C49.92 52.272 51.056 51.36 51.424 49.968H53.616C53.248 52.288 51.52 54.16 48.336 54.16ZM60.4778 42.64C63.7898 42.64 66.3498 44.72 66.3498 48.4C66.3498 52.256 63.7898 54.16 60.4778 54.16C57.2458 54.16 54.6698 52.096 54.6698 48.4H56.8458C56.8458 50.896 58.4298 52.128 60.4778 52.128C62.5898 52.128 64.1898 50.896 64.1898 48.4C64.1898 45.904 62.5898 44.688 60.4778 44.688V42.64ZM69.6735 48.4H67.5775C67.5775 44.88 69.8335 42.64 73.4015 42.64C76.4575 42.64 78.3935 43.824 78.9375 46.624H76.6495C76.2335 45.344 75.1295 44.544 73.4175 44.544C71.1775 44.544 69.6735 46.224 69.6735 48.4ZM73.2415 54H70.1375L76.2495 49.6H73.0175V48.032H78.9695C78.9695 48.112 78.9695 53.92 78.9695 54H76.9535V51.328L73.2415 54ZM82.5173 48.4H80.4213C80.4213 44.88 82.6773 42.64 86.2453 42.64C89.3013 42.64 91.2373 43.824 91.7813 46.624H89.4933C89.0773 45.344 87.9733 44.544 86.2613 44.544C84.0213 44.544 82.5173 46.224 82.5173 48.4ZM86.0853 54H82.9813L89.0933 49.6H85.8613V48.032H91.8133C91.8133 48.112 91.8133 53.92 91.8133 54H89.7973V51.328L86.0853 54ZM103.758 54.16C99.9339 54.16 97.9979 51.568 97.9979 48.4C97.9979 45.216 100.11 42.64 103.518 42.64C106.558 42.64 108.718 44.192 109.038 46.944H106.878C106.558 45.616 105.566 44.544 103.662 44.544C101.662 44.544 100.11 46.032 100.11 48.24C100.11 50.336 101.502 52.272 103.694 52.272C105.342 52.272 106.478 51.36 106.846 49.968H109.038C108.67 52.288 106.942 54.16 103.758 54.16ZM110.604 54V48.256H115.004C116.3 48.256 117.132 47.568 117.132 46.384C117.132 45.28 116.428 44.688 114.988 44.688H110.604V42.8H115.228C117.756 42.8 119.164 44.08 119.164 46.336C119.164 47.536 118.556 49.008 117.196 49.68L119.804 54H117.372L115.276 50.048H112.764V54H110.604ZM126.739 42.8L131.139 54H128.643L125.459 45.12H125.299L122.323 54H119.987L124.003 42.8H126.739ZM132.307 44.896V42.8H149.827V44.896H132.307ZM144.307 46.32H146.467V54H144.307V46.32ZM132.307 54V47.52H140.003V49.456H134.499V54H132.307Z" fill="white"/>
<defs>
<clipPath id="clip0_3_2">
<rect width="32" height="34" fill="white" transform="translate(69)"/>
</clipPath>
</defs>
</svg>
