<svg width="170" height="61" viewBox="0 0 170 61" fill="none" xmlns="http://www.w3.org/2000/svg">
<g clip-path="url(#clip0_3_2)">
<path fill-rule="evenodd" clip-rule="evenodd" d="M71.1732 10.1486L93.3393 3.29447C95.6732 2.4955 98.6939 1.28855 100.054 0C100.054 0 109.155 6.79973 97.2031 10.4886L77.9708 16.4417L71.1732 10.1486Z" fill="#2DDAFF"/>
<path fill-rule="evenodd" clip-rule="evenodd" d="M69 21.9461L91.166 15.092C93.5043 14.2964 96.525 13.0895 97.8854 11.8009C97.8854 11.8009 106.987 18.6007 95.0342 22.2861L75.7759 28.2427L69 21.9461Z" fill="#1A85F8"/>
<path opacity="0.8" fill-rule="evenodd" clip-rule="evenodd" d="M69 21.9461L80.735 18.3151L95.1516 31.6969L89.2841 33.5159C86.0548 34.5154 81.8954 33.917 80.0222 32.1831L69 21.9461Z" fill="#2DDAFF"/>
</g>
<path d="M48.544 29.14C45.198 29.14 43.504 26.872 43.504 24.1C43.504 21.314 45.352 19.06 48.334 19.06C50.994 19.06 52.884 20.418 53.164 22.826H51.274C50.994 21.664 50.126 20.726 48.46 20.726C46.71 20.726 45.352 22.028 45.352 23.96C45.352 25.794 46.57 27.488 48.488 27.488C49.93 27.488 50.924 26.69 51.246 25.472H53.164C52.842 27.502 51.33 29.14 48.544 29.14ZM59.168 19.06C62.066 19.06 64.306 20.88 64.306 24.1C64.306 27.474 62.066 29.14 59.168 29.14C56.34 29.14 54.086 27.334 54.086 24.1H55.99C55.99 26.284 57.376 27.362 59.168 27.362C61.016 27.362 62.416 26.284 62.416 24.1C62.416 21.916 61.016 20.852 59.168 20.852V19.06ZM67.2143 24.1H65.3803C65.3803 21.02 67.3543 19.06 70.4763 19.06C73.1503 19.06 74.8443 20.096 75.3203 22.546H73.3183C72.9543 21.426 71.9883 20.726 70.4903 20.726C68.5303 20.726 67.2143 22.196 67.2143 24.1ZM70.3363 29H67.6203L72.9683 25.15H70.1403V23.778H75.3483C75.3483 23.848 75.3483 28.93 75.3483 29H73.5843V26.662L70.3363 29ZM78.4526 24.1H76.6186C76.6186 21.02 78.5926 19.06 81.7146 19.06C84.3886 19.06 86.0826 20.096 86.5586 22.546H84.5566C84.1926 21.426 83.2266 20.726 81.7286 20.726C79.7686 20.726 78.4526 22.196 78.4526 24.1ZM81.5746 29H78.8586L84.2066 25.15H81.3786V23.778H86.5866C86.5866 23.848 86.5866 28.93 86.5866 29H84.8226V26.662L81.5746 29ZM97.0381 29.14C93.6921 29.14 91.9981 26.872 91.9981 24.1C91.9981 21.314 93.8461 19.06 96.8281 19.06C99.4881 19.06 101.378 20.418 101.658 22.826H99.7681C99.4881 21.664 98.6201 20.726 96.9541 20.726C95.2041 20.726 93.8461 22.028 93.8461 23.96C93.8461 25.794 95.0641 27.488 96.9821 27.488C98.4241 27.488 99.4181 26.69 99.7401 25.472H101.658C101.336 27.502 99.8241 29.14 97.0381 29.14ZM103.028 29V23.974H106.878C108.012 23.974 108.74 23.372 108.74 22.336C108.74 21.37 108.124 20.852 106.864 20.852H103.028V19.2H107.074C109.286 19.2 110.518 20.32 110.518 22.294C110.518 23.344 109.986 24.632 108.796 25.22L111.078 29H108.95L107.116 25.542H104.918V29H103.028ZM117.146 19.2L120.996 29H118.812L116.026 21.23H115.886L113.282 29H111.238L114.752 19.2H117.146ZM122.018 21.034V19.2H137.348V21.034H122.018ZM132.518 22.28H134.408V29H132.518V22.28ZM122.018 29V23.33H128.752V25.024H123.936V29H122.018Z" fill="white"/>
<defs>
<clipPath id="clip0_3_2">
<rect width="32" height="34" fill="white" transform="translate(69)"/>
</clipPath>
</defs>
</svg>
