<svg width="170" height="61" viewBox="0 0 170 61" fill="none" xmlns="http://www.w3.org/2000/svg">
<g clip-path="url(#clip0_3_2)">
<path fill-rule="evenodd" clip-rule="evenodd" d="M71.1732 10.1486L93.3393 3.29447C95.6732 2.4955 98.6939 1.28855 100.054 0C100.054 0 109.155 6.79973 97.2031 10.4886L77.9708 16.4417L71.1732 10.1486Z" fill="#2DDAFF"/>
<path fill-rule="evenodd" clip-rule="evenodd" d="M69 21.9461L91.166 15.092C93.5043 14.2964 96.525 13.0895 97.8854 11.8009C97.8854 11.8009 106.987 18.6007 95.0342 22.2861L75.7759 28.2427L69 21.9461Z" fill="#1A85F8"/>
<path opacity="0.8" fill-rule="evenodd" clip-rule="evenodd" d="M69 21.9461L80.735 18.3151L95.1516 31.6969L89.2841 33.5159C86.0548 34.5154 81.8954 33.917 80.0222 32.1831L69 21.9461Z" fill="#2DDAFF"/>
</g>
<path d="M34.336 56.16C30.512 56.16 28.576 53.568 28.576 50.4C28.576 47.216 30.688 44.64 34.096 44.64C37.136 44.64 39.296 46.192 39.616 48.944H37.456C37.136 47.616 36.144 46.544 34.24 46.544C32.24 46.544 30.688 48.032 30.688 50.24C30.688 52.336 32.08 54.272 34.272 54.272C35.92 54.272 37.056 53.36 37.424 51.968H39.616C39.248 54.288 37.52 56.16 34.336 56.16ZM46.4778 44.64C49.7898 44.64 52.3498 46.72 52.3498 50.4C52.3498 54.256 49.7898 56.16 46.4778 56.16C43.2458 56.16 40.6698 54.096 40.6698 50.4H42.8458C42.8458 52.896 44.4298 54.128 46.4778 54.128C48.5898 54.128 50.1898 52.896 50.1898 50.4C50.1898 47.904 48.5898 46.688 46.4778 46.688V44.64ZM55.6735 50.4H53.5775C53.5775 46.88 55.8335 44.64 59.4015 44.64C62.4575 44.64 64.3935 45.824 64.9375 48.624H62.6495C62.2335 47.344 61.1295 46.544 59.4175 46.544C57.1775 46.544 55.6735 48.224 55.6735 50.4ZM59.2415 56H56.1375L62.2495 51.6H59.0175V50.032H64.9695C64.9695 50.112 64.9695 55.92 64.9695 56H62.9535V53.328L59.2415 56ZM68.5173 50.4H66.4213C66.4213 46.88 68.6773 44.64 72.2453 44.64C75.3013 44.64 77.2373 45.824 77.7813 48.624H75.4933C75.0773 47.344 73.9733 46.544 72.2613 46.544C70.0213 46.544 68.5173 48.224 68.5173 50.4ZM72.0853 56H68.9813L75.0933 51.6H71.8613V50.032H77.8133C77.8133 50.112 77.8133 55.92 77.8133 56H75.7973V53.328L72.0853 56ZM89.7579 56.16C85.9339 56.16 83.9979 53.568 83.9979 50.4C83.9979 47.216 86.1099 44.64 89.5179 44.64C92.5579 44.64 94.7179 46.192 95.0379 48.944H92.8779C92.5579 47.616 91.5659 46.544 89.6619 46.544C87.6619 46.544 86.1099 48.032 86.1099 50.24C86.1099 52.336 87.5019 54.272 89.6939 54.272C91.3419 54.272 92.4779 53.36 92.8459 51.968H95.0379C94.6699 54.288 92.9419 56.16 89.7579 56.16ZM96.6036 56V50.256H101.004C102.3 50.256 103.132 49.568 103.132 48.384C103.132 47.28 102.428 46.688 100.988 46.688H96.6036V44.8H101.228C103.756 44.8 105.164 46.08 105.164 48.336C105.164 49.536 104.556 51.008 103.196 51.68L105.804 56H103.372L101.276 52.048H98.7636V56H96.6036ZM112.739 44.8L117.139 56H114.643L111.459 47.12H111.299L108.323 56H105.987L110.003 44.8H112.739ZM118.307 46.896V44.8H135.827V46.896H118.307ZM130.307 48.32H132.467V56H130.307V48.32ZM118.307 56V49.52H126.003V51.456H120.499V56H118.307ZM140.898 46.384L140.882 44.64C143.746 44.64 145.522 45.968 145.522 48.48H143.362C143.362 47.2 142.354 46.384 140.898 46.384ZM136.578 47.648L138.674 47.68C138.674 50.064 145.522 48.832 145.522 52.896C145.522 54.864 143.714 56.16 141.122 56.16C138.289 56.16 136.418 54.96 136.418 52.304H138.61C138.61 53.6 139.522 54.4 141.074 54.4C142.418 54.4 143.362 53.808 143.362 52.896C143.362 50.256 136.578 51.728 136.578 47.648Z" fill="white"/>
<defs>
<clipPath id="clip0_3_2">
<rect width="32" height="34" fill="white" transform="translate(69)"/>
</clipPath>
</defs>
</svg>
